<svg id="svg" xmlns="http://www.w3.org/2000/svg" viewBox="0 0 1439.73 733.42"><title>ubergo</title><path d="M230.61,80C108.9,78.6,8.81,172.48.27,291.7H162.88V246.86a3.68,3.68,0,0,1,3.68-3.68H289.33a3.68,3.68,0,0,1,3.68,3.68V369.63a3.68,3.68,0,0,1-3.68,3.68H166.55a3.68,3.68,0,0,1-3.68-3.68V324.78H.27C8.75,443.13,107.43,536.51,227.94,536.51c125.35,0,227.1-101,228.26-226.11C457.36,185.12,355.88,81.42,230.61,80Z" transform="translate(-0.27 -79.97)" fill="#ffffff"/><path d="M1440,310.4c.06-6.29-.15-12.53-.6-18.7h.33c-8.27-115.54-102.53-207.26-219.13-211.55l-.71,0q-2.19-.07-4.4-.11l-1.08,0h-1l-1.33,0-1.44,0-3.69,0-1.45,0q-2.5.07-5,.19h-.19C1085,86,992.27,177.13,984.06,291.7h.33c-.34,4.76-.55,9.55-.6,14.38-.06,6.29.15,12.53.6,18.7h-.34C992.34,440.32,1086.6,532,1203.19,536.34l.71,0q2.19.07,4.4.11l1.08,0h1l1.33,0,1.44,0,3.69,0,1.45,0q2.51-.07,5-.19h.19c115.25-5.69,208-96.85,216.22-211.43h-.33C1439.73,320,1439.95,315.23,1440,310.4Zm-293,59.23V246.86a3.68,3.68,0,0,1,3.68-3.68h122.45a3.68,3.68,0,0,1,3.68,3.68V369.63a3.68,3.68,0,0,1-3.68,3.68H1150.67A3.68,3.68,0,0,1,1147,369.63Z" transform="translate(-0.27 -79.97)" fill="#ffffff"/><path d="M.49,627.82H39.63V729.56S37,783,89.19,783c0,0,52.18,3.91,52.18-50.87V627.82H180.5v103S188.33,813,90.5,813c0,0-90,10.44-90-82.18Z" transform="translate(-0.27 -79.97)" fill="#ffffff"/><path d="M1348.08,625.56c-96.67,0-88.85,91-88.85,91,0,3.56-.18,7.47,0,11.74,3.91,92.61,91.31,82.18,91.31,82.18,95.22,0,88.7-82.18,88.7-82.18l.15-8.78V707.74C1439.39,615.13,1348.08,625.56,1348.08,625.56Zm52,104c0,54.78-50.87,50.87-50.87,50.87-52.18,0-50.87-52.18-50.87-52.18s.15-16.71.15-21.82c0-54.78,50.87-50.87,50.87-50.87,52.18,0,50.87,52.18,50.87,52.18S1400.11,724.45,1400.11,729.56Z" transform="translate(-0.27 -79.97)" fill="#ffffff"/><path d="M395.73,712.6c23.48-13,19.57-40.44,19.57-40.44,0-43-45.65-44.35-45.65-44.35H265.94a12.39,12.39,0,0,0-12.39,12.39V796.74a12.39,12.39,0,0,0,12.39,12.39H378.77c15.65,0,45.65-14.35,45.65-50.87S395.73,712.6,395.73,712.6ZM291.37,656.51h70.44s15.65,0,15.65,22.17-13,23.48-13,23.48h-73Zm78.26,123.92H291.37V744.56a12.39,12.39,0,0,1,12.39-12.39h67.18s15.65,1.3,15.65,23.48S369.64,780.43,369.64,780.43Z" transform="translate(-0.27 -79.97)" fill="#ffffff"/><path d="M494.86,640.21V796.74a12.39,12.39,0,0,0,12.39,12.39H641l11.74-28.7h-120V744.56a12.39,12.39,0,0,1,12.39-12.39h64.57l11.74-30h-88.7V656.51H641l11.74-28.7H507.25A12.39,12.39,0,0,0,494.86,640.21Z" transform="translate(-0.27 -79.97)" fill="#ffffff"/><path d="M849.65,737.39s30-9.13,35.22-35.22-2.61-45.65-2.61-45.65-13-26.09-47-28.7h-105a12.39,12.39,0,0,0-12.39,12.39V809.13h36.52V753s2.61-11.74,17-11.74h40.44l37.83,67.83h40.44ZM831.39,711.3H755.74V656.51h75.65s17,1.3,17,27.39S831.39,711.3,831.39,711.3Z" transform="translate(-0.27 -79.97)" fill="#ffffff"/><path d="M1195.32,728.26h-25.61a2.61,2.61,0,0,0-2.43,1.66l-9.7,24.78a2.61,2.61,0,0,0,2.43,3.56h19.65c-13.73,24.52-44.34,22.17-44.34,22.17-52.18,0-50.87-52.18-50.87-52.18s.15-16.71.15-21.82c0-54.78,50.87-50.87,50.87-50.87,34.36,0,45.53,22.63,49.15,38.08a2.59,2.59,0,0,0,2.53,2H1222a2.62,2.62,0,0,0,2.59-2.95c-9.37-76.4-90.42-67.14-90.42-67.14-96.67,0-88.85,91-88.85,91,0,3.56-.18,7.47,0,11.74,3.91,92.61,91.31,82.18,91.31,82.18,26.85,0,45.6-11.75,58.7-21.13v13.24a2.61,2.61,0,0,0,3.65,2.39l24.78-10.78a2.61,2.61,0,0,0,1.57-2.39v-60.9a2.61,2.61,0,0,0-2.61-2.61Z" transform="translate(-0.27 -79.97)" fill="#ffffff"/><path d="M719.94,325.2v22.17h65.6v22.25a3.68,3.68,0,0,1-3.68,3.68H659.09a3.68,3.68,0,0,1-3.68-3.68V246.86a3.68,3.68,0,0,1,3.68-3.68H781.86a3.68,3.68,0,0,1,3.68,3.68V291.7H948.15C939.67,173.35,841,80,720.48,80c-125.35,0-227.1,101-228.26,226.11-1.16,125.28,100.31,229,225.59,230.41,121.72,1.39,221.8-92.49,230.34-211.71H719.94Z" transform="translate(-0.27 -79.97)" fill="#ffffff"/></svg>
